<svg version="1.1" viewBox="0.0 0.0 123.83989501312335 60.0" fill="none" stroke="none" stroke-linecap="square" stroke-miterlimit="10" xmlns:xlink="http://www.w3.org/1999/xlink" xmlns="http://www.w3.org/2000/svg"><clipPath id="p.0"><path d="m0 0l123.8399 0l0 60.0l-123.8399 0l0 -60.0z" clip-rule="nonzero"/></clipPath><g clip-path="url(#p.0)"><path fill="#000000" fill-opacity="0.0" d="m0 0l123.8399 0l0 60.0l-123.8399 0z" fill-rule="evenodd"/><path fill="#ffffff" d="m-0.003938058 14.123547l0 0c0 -8.017654 6.4995933 -14.517247 14.517247 -14.517247l48.603302 0l0 0c3.8502083 0 7.5427284 1.5294912 10.26524 4.252003c2.7225113 2.7225118 4.2520065 6.415031 4.2520065 10.265244l0 31.752907c0 8.017654 -6.4995956 14.517246 -14.517246 14.517246l-48.603302 0c-8.017654 0 -14.517247 -6.499592 -14.517247 -14.517246z" fill-rule="evenodd"/><path fill="#ffffff" d="m95.30199 55.323044l-26.456688 -6.61417l0 -37.417324l26.456688 -6.6141734z" fill-rule="evenodd"/><path fill="#ffffff" d="m119.60258 29.82066l0 0c0 -1.2468948 0.94973755 -2.2577019 2.121292 -2.2577019l0 0c0.5625992 0 1.1021652 0.23786545 1.4999847 0.6612663c0.39781952 0.42340088 0.6213074 0.99765587 0.6213074 1.5964355l0 0c0 1.2468929 -0.94973755 2.2577019 -2.121292 2.2577019l0 0c-1.1715546 0 -2.121292 -1.010809 -2.121292 -2.2577019z" fill-rule="evenodd"/><path fill="#ffffff" d="m99.59118 29.855423l0 0c0 -1.2468948 0.9497299 -2.2577019 2.121292 -2.2577019l0 0c0.5625992 0 1.1021576 0.23786354 1.4999771 0.6612663c0.39781952 0.42340088 0.621315 0.99765587 0.621315 1.5964355l0 0c0 1.2468929 -0.94973755 2.257698 -2.121292 2.257698l0 0c-1.1715622 0 -2.121292 -1.0108051 -2.121292 -2.257698z" fill-rule="evenodd"/><path fill="#ffffff" d="m101.21164 27.563623l20.400177 0l0 4.515402l-20.400177 0z" fill-rule="evenodd"/><path fill="#ffffff" d="m116.42979 53.326923l0 0c0.5904312 -1.0754852 1.8883362 -1.4337349 2.8989487 -0.8001709l0 0c0.48531342 0.304245 0.8381119 0.80119705 0.9807968 1.3815308c0.1426773 0.5803337 0.06354523 1.1965065 -0.21999359 1.7129745l0 0c-0.5904312 1.0754852 -1.8883362 1.4337349 -2.8989487 0.8001709l0 0c-1.0106125 -0.633564 -1.3512344 -2.01902 -0.7608032 -3.0945053z" fill-rule="evenodd"/><path fill="#ffffff" d="m99.15102 42.535007l0 0c0.5904312 -1.0754852 1.8883362 -1.4337349 2.8989487 -0.8001709l0 0c0.48531342 0.3042488 0.8381195 0.80120087 0.9807968 1.3815308c0.1426773 0.5803337 0.06354523 1.1965065 -0.21998596 1.7129745l0 0c-0.5904312 1.0754852 -1.8883362 1.4337349 -2.8989487 0.8001709l0 0c-1.0106125 -0.633564 -1.3512421 -2.01902 -0.76081085 -3.0945053z" fill-rule="evenodd"/><path fill="#ffffff" d="m101.63409 41.434586l17.597672 11.032143l-2.1381454 3.8946762l-17.597664 -11.032143z" fill-rule="evenodd"/><path fill="#ffffff" d="m102.75209 14.892364l0 0c-0.5746002 -1.0852089 -1.8668442 -1.4653263 -2.8863144 -0.8490162l0 0c-0.489563 0.2959633 -0.8494644 0.7868242 -1.0005264 1.3646002c-0.15105438 0.57777596 -0.0809021 1.1951389 0.19503021 1.7162743l0 0c0.5746002 1.0852089 1.8668518 1.4653263 2.8863144 0.8490162l0 0c1.0194702 -0.616312 1.3801041 -1.9956656 0.8054962 -3.0808744z" fill-rule="evenodd"/><path fill="#ffffff" d="m120.18164 4.3954043l0 0c-0.57460785 -1.0852091 -1.8668518 -1.4653265 -2.886322 -0.84901595l0 0c-0.489563 0.2959628 -0.8494644 0.786824 -1.0005188 1.3646c-0.15106201 0.57777596 -0.08090973 1.1951385 0.19502258 1.7162743l0 0c0.5746002 1.0852089 1.8668518 1.4653258 2.8863144 0.8490157l0 0c1.0194702 -0.6163106 1.3801041 -1.9956651 0.80550385 -3.080874z" fill-rule="evenodd"/><path fill="#ffffff" d="m117.715416 3.2532465l-17.751823 10.731732l2.0808182 3.9298906l17.751823 -10.731733z" fill-rule="evenodd"/></g></svg>